<svg width="735.30964" height="704.87772" xmlns="http://www.w3.org/2000/svg" data-name="Layer 1">

 <g>
  <title>Layer 1</title>
  <path id="svg_15" d="m77.58077,624.29652c0,0 452,-1 505,-1c53,0 125,-15 129,-77c4,-62 2.11753,-42.32966 1.34518,-41.56113c-0.77234,0.76853 -428.34518,8.56113 -429,8c0.65482,0.56113 -170.31885,17.26236 -184,19c-7.39086,0.94425 -15.62461,-0.26315 -21.41021,5.71051c-5.7856,5.97366 -7.93498,27.85062 -8.58979,27.28949c0.65482,0.56113 -2.34518,34.56113 -3,34c0.65482,0.56113 -2.66329,13.69117 0.65482,19.56113c3.31811,5.86996 10,6 10,6z" fill="#3f3d56"/>
  <circle id="svg_1" fill="#daad51" r="125" cy="204.86091" cx="239.07945"/>
  <path id="svg_2" fill="#f5e5d4" d="m539.24741,73.17332c-0.84172,-3.30377 -3.58023,-5.77558 -6.43582,-7.63822s-5.99805,-3.35964 -8.43669,-5.74274c-2.438,-2.383 -4.07784,-6.00667 -2.946,-9.22263c1.37576,-3.90855 5.96032,-5.47043 9.96791,-6.5242a1077.20106,1077.20106 0 0 0 -110.43018,-6.16059a6.64252,6.64252 0 0 0 -11.9883,3.96116l0,118.56375l13.32177,0l0,-72.83163q47.46369,0.115 94.928,0.22994c5.12316,0.01236 10.45382,-0.02025 15.05984,-2.264c4.60669,-2.24364 8.22465,-7.40591 6.95947,-12.37084z"/>
  <path id="svg_6" fill="#f5e5d4" d="m283.75369,630.74446l-279.75716,0a3.99653,3.99653 0 1 1 0,-7.99306l279.75716,0a3.99653,3.99653 0 1 1 0,7.99306z"/>
  <path id="svg_7" fill="#f5e5d4" d="m159.86123,654.72364l-115.89941,0a3.99653,3.99653 0 1 1 0,-7.99306l115.89941,0a3.99653,3.99653 0 0 1 0,7.99306z"/>
  <path id="svg_8" fill="#f5e5d4" d="m671.41719,630.74446l-279.75717,0a3.99653,3.99653 0 1 1 0,-7.99306l279.75717,0a3.99653,3.99653 0 1 1 0,7.99306z"/>
  <path id="svg_9" fill="#f5e5d4" d="m499.56636,654.72364l-279.75716,0a3.99653,3.99653 0 1 1 0,-7.99306l279.75716,0a3.99653,3.99653 0 1 1 0,7.99306z"/>
  <path id="svg_10" fill="#f5e5d4" d="m283.75369,676.03848l-279.75716,0a3.99654,3.99654 0 0 1 0,-7.99307l279.75716,0a3.99654,3.99654 0 0 1 0,7.99307z"/>
  <path id="svg_11" fill="#f5e5d4" d="m451.60799,700.01766l-115.8994,0a3.99653,3.99653 0 0 1 0,-7.99306l115.8994,0a3.99653,3.99653 0 0 1 0,7.99306z"/>
  <path id="svg_12" fill="#f5e5d4" d="m201.15872,700.01766l-115.8994,0a3.99653,3.99653 0 1 1 0,-7.99306l115.8994,0a3.99653,3.99653 0 0 1 0,7.99306z"/>
  <path id="svg_13" fill="#f5e5d4" d="m671.41719,676.03848l-279.75717,0a3.99653,3.99653 0 0 1 0,-7.99307l279.75717,0a3.99654,3.99654 0 0 1 0,7.99307z"/>
  <path id="svg_14" fill="#f5e5d4" d="m732.87514,700.01766l-222.14053,0a3.17344,3.99653 0 0 1 0,-7.99306l222.14053,0a3.17344,3.99653 0 0 1 0,7.99306z"/>
  <path id="svg_16" d="m380.12369,522.56197" opacity="NaN" fill="#3f3d56"/>
  <rect id="svg_17" height="468.51896" width="12.96298" y="87.37637" x="408.82742" fill="#3f3d56"/>
  <path id="svg_18" d="m139.38272,490.15453l271.72879,-3.11702l0.92593,-391.66705l-272.65472,394.78407z" opacity="NaN" fill="#3f3d56"/>
  <path id="svg_19" d="m468.08674,481.82119l229.13616,25.58671l-283.33361,-405.55595l54.19745,379.96924z" opacity="NaN" fill="#3f3d56"/>
 </g>
</svg>